<?xml version="1.0" encoding="UTF-8" standalone="no"?><!-- Generator: Gravit.io --><svg xmlns="http://www.w3.org/2000/svg" xmlns:xlink="http://www.w3.org/1999/xlink" style="isolation:isolate" viewBox="0 0 340.157 141.732" width="340.157pt" height="141.732pt"><path d=" M 236.622 106.515 L 236.622 96.521 L 239.445 96.521 L 239.445 96.521 Q 241.434 96.521 242.323 97.116 L 242.323 97.116 L 242.323 97.116 Q 243.211 97.71 243.211 98.996 L 243.211 98.996 L 243.211 98.996 Q 243.211 99.884 242.716 100.462 L 242.716 100.462 L 242.716 100.462 Q 242.22 101.04 241.27 101.21 L 241.27 101.21 L 241.27 101.279 L 241.27 101.279 Q 243.546 101.668 243.546 103.671 L 243.546 103.671 L 243.546 103.671 Q 243.546 105.011 242.641 105.763 L 242.641 105.763 L 242.641 105.763 Q 241.735 106.515 240.108 106.515 L 240.108 106.515 L 236.622 106.515 L 236.622 106.515 Z  M 237.784 97.526 L 237.784 100.8 L 239.698 100.8 L 239.698 100.8 Q 240.928 100.8 241.468 100.414 L 241.468 100.414 L 241.468 100.414 Q 242.008 100.028 242.008 99.112 L 242.008 99.112 L 242.008 99.112 Q 242.008 98.271 241.407 97.898 L 241.407 97.898 L 241.407 97.898 Q 240.805 97.526 239.493 97.526 L 239.493 97.526 L 237.784 97.526 L 237.784 97.526 Z  M 239.773 101.785 L 237.784 101.785 L 237.784 105.524 L 239.869 105.524 L 239.869 105.524 Q 241.079 105.524 241.69 105.056 L 241.69 105.056 L 241.69 105.056 Q 242.302 104.587 242.302 103.589 L 242.302 103.589 L 242.302 103.589 Q 242.302 102.66 241.677 102.222 L 241.677 102.222 L 241.677 102.222 Q 241.051 101.785 239.773 101.785 L 239.773 101.785 L 239.773 101.785 Z  M 248.687 106.652 L 248.687 106.652 L 248.687 106.652 Q 247.026 106.652 246.065 105.64 L 246.065 105.64 L 246.065 105.64 Q 245.105 104.628 245.105 102.831 L 245.105 102.831 L 245.105 102.831 Q 245.105 101.019 245.997 99.953 L 245.997 99.953 L 245.997 99.953 Q 246.889 98.886 248.393 98.886 L 248.393 98.886 L 248.393 98.886 Q 249.801 98.886 250.622 99.812 L 250.622 99.812 L 250.622 99.812 Q 251.442 100.739 251.442 102.256 L 251.442 102.256 L 251.442 102.974 L 246.281 102.974 L 246.281 102.974 Q 246.315 104.293 246.947 104.977 L 246.947 104.977 L 246.947 104.977 Q 247.58 105.661 248.728 105.661 L 248.728 105.661 L 248.728 105.661 Q 249.938 105.661 251.121 105.155 L 251.121 105.155 L 251.121 106.166 L 251.121 106.166 Q 250.519 106.426 249.982 106.539 L 249.982 106.539 L 249.982 106.539 Q 249.446 106.652 248.687 106.652 Z  M 248.379 99.836 L 248.379 99.836 L 248.379 99.836 Q 247.477 99.836 246.94 100.424 L 246.94 100.424 L 246.94 100.424 Q 246.404 101.012 246.308 102.051 L 246.308 102.051 L 250.225 102.051 L 250.225 102.051 Q 250.225 100.978 249.747 100.407 L 249.747 100.407 L 249.747 100.407 Q 249.268 99.836 248.379 99.836 Z  M 256.918 99.023 L 259.508 99.023 L 259.508 99.741 L 258.121 99.905 L 258.121 99.905 Q 258.312 100.144 258.462 100.53 L 258.462 100.53 L 258.462 100.53 Q 258.613 100.916 258.613 101.402 L 258.613 101.402 L 258.613 101.402 Q 258.613 102.502 257.861 103.159 L 257.861 103.159 L 257.861 103.159 Q 257.109 103.815 255.796 103.815 L 255.796 103.815 L 255.796 103.815 Q 255.461 103.815 255.168 103.76 L 255.168 103.76 L 255.168 103.76 Q 254.443 104.143 254.443 104.724 L 254.443 104.724 L 254.443 104.724 Q 254.443 105.032 254.696 105.179 L 254.696 105.179 L 254.696 105.179 Q 254.949 105.326 255.564 105.326 L 255.564 105.326 L 256.89 105.326 L 256.89 105.326 Q 258.107 105.326 258.76 105.838 L 258.76 105.838 L 258.76 105.838 Q 259.413 106.351 259.413 107.329 L 259.413 107.329 L 259.413 107.329 Q 259.413 108.573 258.415 109.226 L 258.415 109.226 L 258.415 109.226 Q 257.417 109.878 255.502 109.878 L 255.502 109.878 L 255.502 109.878 Q 254.033 109.878 253.236 109.332 L 253.236 109.332 L 253.236 109.332 Q 252.44 108.785 252.44 107.787 L 252.44 107.787 L 252.44 107.787 Q 252.44 107.103 252.877 106.604 L 252.877 106.604 L 252.877 106.604 Q 253.315 106.105 254.108 105.927 L 254.108 105.927 L 254.108 105.927 Q 253.821 105.797 253.626 105.524 L 253.626 105.524 L 253.626 105.524 Q 253.431 105.25 253.431 104.888 L 253.431 104.888 L 253.431 104.888 Q 253.431 104.478 253.65 104.17 L 253.65 104.17 L 253.65 104.17 Q 253.869 103.863 254.34 103.576 L 254.34 103.576 L 254.34 103.576 Q 253.759 103.336 253.394 102.762 L 253.394 102.762 L 253.394 102.762 Q 253.028 102.188 253.028 101.45 L 253.028 101.45 L 253.028 101.45 Q 253.028 100.219 253.766 99.553 L 253.766 99.553 L 253.766 99.553 Q 254.504 98.886 255.858 98.886 L 255.858 98.886 L 255.858 98.886 Q 256.446 98.886 256.918 99.023 L 256.918 99.023 L 256.918 99.023 Z  M 253.534 107.773 L 253.534 107.773 L 253.534 107.773 Q 253.534 108.381 254.046 108.696 L 254.046 108.696 L 254.046 108.696 Q 254.559 109.01 255.516 109.01 L 255.516 109.01 L 255.516 109.01 Q 256.945 109.01 257.632 108.583 L 257.632 108.583 L 257.632 108.583 Q 258.319 108.156 258.319 107.424 L 258.319 107.424 L 258.319 107.424 Q 258.319 106.816 257.943 106.58 L 257.943 106.58 L 257.943 106.58 Q 257.567 106.344 256.528 106.344 L 256.528 106.344 L 255.168 106.344 L 255.168 106.344 Q 254.395 106.344 253.964 106.713 L 253.964 106.713 L 253.964 106.713 Q 253.534 107.082 253.534 107.773 Z  M 254.149 101.422 L 254.149 101.422 L 254.149 101.422 Q 254.149 102.208 254.593 102.612 L 254.593 102.612 L 254.593 102.612 Q 255.038 103.015 255.831 103.015 L 255.831 103.015 L 255.831 103.015 Q 257.492 103.015 257.492 101.402 L 257.492 101.402 L 257.492 101.402 Q 257.492 99.713 255.81 99.713 L 255.81 99.713 L 255.81 99.713 Q 255.01 99.713 254.58 100.144 L 254.58 100.144 L 254.58 100.144 Q 254.149 100.575 254.149 101.422 Z  M 262.181 99.023 L 262.181 106.515 L 261.046 106.515 L 261.046 99.023 L 262.181 99.023 L 262.181 99.023 Z  M 260.951 96.993 L 260.951 96.993 L 260.951 96.993 Q 260.951 96.603 261.142 96.422 L 261.142 96.422 L 261.142 96.422 Q 261.334 96.241 261.621 96.241 L 261.621 96.241 L 261.621 96.241 Q 261.894 96.241 262.092 96.425 L 262.092 96.425 L 262.092 96.425 Q 262.291 96.61 262.291 96.993 L 262.291 96.993 L 262.291 96.993 Q 262.291 97.375 262.092 97.563 L 262.092 97.563 L 262.092 97.563 Q 261.894 97.751 261.621 97.751 L 261.621 97.751 L 261.621 97.751 Q 261.334 97.751 261.142 97.563 L 261.142 97.563 L 261.142 97.563 Q 260.951 97.375 260.951 96.993 Z  M 270.849 106.515 L 269.714 106.515 L 269.714 101.668 L 269.714 101.668 Q 269.714 100.752 269.297 100.301 L 269.297 100.301 L 269.297 100.301 Q 268.88 99.85 267.992 99.85 L 267.992 99.85 L 267.992 99.85 Q 266.816 99.85 266.269 100.486 L 266.269 100.486 L 266.269 100.486 Q 265.722 101.122 265.722 102.584 L 265.722 102.584 L 265.722 106.515 L 264.587 106.515 L 264.587 99.023 L 265.51 99.023 L 265.695 100.048 L 265.75 100.048 L 265.75 100.048 Q 266.098 99.495 266.727 99.19 L 266.727 99.19 L 266.727 99.19 Q 267.356 98.886 268.128 98.886 L 268.128 98.886 L 268.128 98.886 Q 269.482 98.886 270.166 99.539 L 270.166 99.539 L 270.166 99.539 Q 270.849 100.192 270.849 101.627 L 270.849 101.627 L 270.849 106.515 L 270.849 106.515 Z  M 199.345 106.515 L 198.183 106.515 L 198.183 96.521 L 199.345 96.521 L 199.345 106.515 L 199.345 106.515 Z  M 207.166 106.515 L 207.015 105.51 L 206.954 105.51 L 206.954 105.51 Q 206.168 106.652 204.602 106.652 L 204.602 106.652 L 204.602 106.652 Q 203.132 106.652 202.315 105.647 L 202.315 105.647 L 202.315 105.647 Q 201.499 104.642 201.499 102.79 L 201.499 102.79 L 201.499 102.79 Q 201.499 100.937 202.319 99.912 L 202.319 99.912 L 202.319 99.912 Q 203.139 98.886 204.602 98.886 L 204.602 98.886 L 204.602 98.886 Q 206.127 98.886 206.94 99.994 L 206.94 99.994 L 207.029 99.994 L 206.981 99.454 L 206.954 98.927 L 206.954 95.878 L 208.088 95.878 L 208.088 106.515 L 207.166 106.515 L 207.166 106.515 Z  M 204.746 105.702 L 204.746 105.702 L 204.746 105.702 Q 205.908 105.702 206.431 105.069 L 206.431 105.069 L 206.431 105.069 Q 206.954 104.437 206.954 103.029 L 206.954 103.029 L 206.954 102.79 L 206.954 102.79 Q 206.954 101.197 206.424 100.517 L 206.424 100.517 L 206.424 100.517 Q 205.894 99.836 204.732 99.836 L 204.732 99.836 L 204.732 99.836 Q 203.734 99.836 203.204 100.612 L 203.204 100.612 L 203.204 100.612 Q 202.674 101.388 202.674 102.803 L 202.674 102.803 L 202.674 102.803 Q 202.674 104.239 203.201 104.97 L 203.201 104.97 L 203.201 104.97 Q 203.727 105.702 204.746 105.702 Z  M 213.66 106.652 L 213.66 106.652 L 213.66 106.652 Q 211.999 106.652 211.038 105.64 L 211.038 105.64 L 211.038 105.64 Q 210.078 104.628 210.078 102.831 L 210.078 102.831 L 210.078 102.831 Q 210.078 101.019 210.97 99.953 L 210.97 99.953 L 210.97 99.953 Q 211.862 98.886 213.366 98.886 L 213.366 98.886 L 213.366 98.886 Q 214.774 98.886 215.594 99.812 L 215.594 99.812 L 215.594 99.812 Q 216.415 100.739 216.415 102.256 L 216.415 102.256 L 216.415 102.974 L 211.253 102.974 L 211.253 102.974 Q 211.288 104.293 211.92 104.977 L 211.92 104.977 L 211.92 104.977 Q 212.552 105.661 213.701 105.661 L 213.701 105.661 L 213.701 105.661 Q 214.911 105.661 216.093 105.155 L 216.093 105.155 L 216.093 106.166 L 216.093 106.166 Q 215.492 106.426 214.955 106.539 L 214.955 106.539 L 214.955 106.539 Q 214.419 106.652 213.66 106.652 Z  M 213.352 99.836 L 213.352 99.836 L 213.352 99.836 Q 212.45 99.836 211.913 100.424 L 211.913 100.424 L 211.913 100.424 Q 211.377 101.012 211.281 102.051 L 211.281 102.051 L 215.198 102.051 L 215.198 102.051 Q 215.198 100.978 214.719 100.407 L 214.719 100.407 L 214.719 100.407 Q 214.241 99.836 213.352 99.836 Z  M 223.797 106.515 L 222.957 106.515 L 222.731 105.449 L 222.676 105.449 L 222.676 105.449 Q 222.116 106.153 221.559 106.402 L 221.559 106.402 L 221.559 106.402 Q 221.002 106.652 220.168 106.652 L 220.168 106.652 L 220.168 106.652 Q 219.053 106.652 218.421 106.078 L 218.421 106.078 L 218.421 106.078 Q 217.789 105.503 217.789 104.444 L 217.789 104.444 L 217.789 104.444 Q 217.789 102.174 221.419 102.065 L 221.419 102.065 L 222.69 102.024 L 222.69 101.559 L 222.69 101.559 Q 222.69 100.677 222.311 100.257 L 222.311 100.257 L 222.311 100.257 Q 221.931 99.836 221.097 99.836 L 221.097 99.836 L 221.097 99.836 Q 220.161 99.836 218.978 100.411 L 218.978 100.411 L 218.629 99.542 L 218.629 99.542 Q 219.183 99.242 219.843 99.071 L 219.843 99.071 L 219.843 99.071 Q 220.502 98.9 221.166 98.9 L 221.166 98.9 L 221.166 98.9 Q 222.505 98.9 223.151 99.495 L 223.151 99.495 L 223.151 99.495 Q 223.797 100.089 223.797 101.402 L 223.797 101.402 L 223.797 106.515 L 223.797 106.515 Z  M 220.393 105.715 L 220.393 105.715 L 220.393 105.715 Q 221.453 105.715 222.058 105.134 L 222.058 105.134 L 222.058 105.134 Q 222.663 104.553 222.663 103.507 L 222.663 103.507 L 222.663 102.831 L 221.528 102.878 L 221.528 102.878 Q 220.174 102.926 219.576 103.299 L 219.576 103.299 L 219.576 103.299 Q 218.978 103.671 218.978 104.457 L 218.978 104.457 L 218.978 104.457 Q 218.978 105.073 219.351 105.394 L 219.351 105.394 L 219.351 105.394 Q 219.723 105.715 220.393 105.715 Z  M 230.968 104.471 L 230.968 104.471 L 230.968 104.471 Q 230.968 105.517 230.189 106.084 L 230.189 106.084 L 230.189 106.084 Q 229.41 106.652 228.002 106.652 L 228.002 106.652 L 228.002 106.652 Q 226.511 106.652 225.677 106.18 L 225.677 106.18 L 225.677 105.127 L 225.677 105.127 Q 226.217 105.401 226.836 105.558 L 226.836 105.558 L 226.836 105.558 Q 227.455 105.715 228.029 105.715 L 228.029 105.715 L 228.029 105.715 Q 228.918 105.715 229.396 105.432 L 229.396 105.432 L 229.396 105.432 Q 229.875 105.148 229.875 104.567 L 229.875 104.567 L 229.875 104.567 Q 229.875 104.129 229.495 103.818 L 229.495 103.818 L 229.495 103.818 Q 229.116 103.507 228.015 103.083 L 228.015 103.083 L 228.015 103.083 Q 226.969 102.694 226.528 102.403 L 226.528 102.403 L 226.528 102.403 Q 226.087 102.113 225.872 101.744 L 225.872 101.744 L 225.872 101.744 Q 225.657 101.374 225.657 100.862 L 225.657 100.862 L 225.657 100.862 Q 225.657 99.946 226.402 99.416 L 226.402 99.416 L 226.402 99.416 Q 227.147 98.886 228.446 98.886 L 228.446 98.886 L 228.446 98.886 Q 229.656 98.886 230.811 99.378 L 230.811 99.378 L 230.408 100.301 L 230.408 100.301 Q 229.28 99.836 228.364 99.836 L 228.364 99.836 L 228.364 99.836 Q 227.557 99.836 227.147 100.089 L 227.147 100.089 L 227.147 100.089 Q 226.737 100.342 226.737 100.787 L 226.737 100.787 L 226.737 100.787 Q 226.737 101.087 226.891 101.299 L 226.891 101.299 L 226.891 101.299 Q 227.044 101.511 227.386 101.703 L 227.386 101.703 L 227.386 101.703 Q 227.728 101.894 228.699 102.256 L 228.699 102.256 L 228.699 102.256 Q 230.032 102.742 230.5 103.234 L 230.5 103.234 L 230.5 103.234 Q 230.968 103.726 230.968 104.471 Z  M 162.964 96.521 L 160.292 106.515 L 159.143 106.515 L 157.127 99.823 L 157.127 99.823 Q 156.983 99.378 156.805 98.702 L 156.805 98.702 L 156.805 98.702 Q 156.627 98.025 156.621 97.888 L 156.621 97.888 L 156.621 97.888 Q 156.47 98.79 156.142 99.864 L 156.142 99.864 L 154.187 106.515 L 153.039 106.515 L 150.379 96.521 L 151.61 96.521 L 153.189 102.694 L 153.189 102.694 Q 153.517 103.993 153.668 105.045 L 153.668 105.045 L 153.668 105.045 Q 153.852 103.794 154.214 102.598 L 154.214 102.598 L 156.005 96.521 L 157.236 96.521 L 159.116 102.653 L 159.116 102.653 Q 159.444 103.712 159.669 105.045 L 159.669 105.045 L 159.669 105.045 Q 159.799 104.075 160.162 102.68 L 160.162 102.68 L 161.734 96.521 L 162.964 96.521 L 162.964 96.521 Z  M 170.621 106.515 L 169.486 106.515 L 169.486 101.668 L 169.486 101.668 Q 169.486 100.752 169.069 100.301 L 169.069 100.301 L 169.069 100.301 Q 168.652 99.85 167.763 99.85 L 167.763 99.85 L 167.763 99.85 Q 166.581 99.85 166.037 100.493 L 166.037 100.493 L 166.037 100.493 Q 165.494 101.135 165.494 102.598 L 165.494 102.598 L 165.494 106.515 L 164.359 106.515 L 164.359 95.878 L 165.494 95.878 L 165.494 99.098 L 165.494 99.098 Q 165.494 99.679 165.439 100.062 L 165.439 100.062 L 165.507 100.062 L 165.507 100.062 Q 165.842 99.522 166.461 99.211 L 166.461 99.211 L 166.461 99.211 Q 167.08 98.9 167.873 98.9 L 167.873 98.9 L 167.873 98.9 Q 169.247 98.9 169.934 99.553 L 169.934 99.553 L 169.934 99.553 Q 170.621 100.206 170.621 101.627 L 170.621 101.627 L 170.621 106.515 L 170.621 106.515 Z  M 176.117 106.652 L 176.117 106.652 L 176.117 106.652 Q 174.456 106.652 173.495 105.64 L 173.495 105.64 L 173.495 105.64 Q 172.535 104.628 172.535 102.831 L 172.535 102.831 L 172.535 102.831 Q 172.535 101.019 173.427 99.953 L 173.427 99.953 L 173.427 99.953 Q 174.319 98.886 175.823 98.886 L 175.823 98.886 L 175.823 98.886 Q 177.231 98.886 178.051 99.812 L 178.051 99.812 L 178.051 99.812 Q 178.872 100.739 178.872 102.256 L 178.872 102.256 L 178.872 102.974 L 173.711 102.974 L 173.711 102.974 Q 173.745 104.293 174.377 104.977 L 174.377 104.977 L 174.377 104.977 Q 175.009 105.661 176.158 105.661 L 176.158 105.661 L 176.158 105.661 Q 177.368 105.661 178.55 105.155 L 178.55 105.155 L 178.55 106.166 L 178.55 106.166 Q 177.949 106.426 177.412 106.539 L 177.412 106.539 L 177.412 106.539 Q 176.876 106.652 176.117 106.652 Z  M 175.809 99.836 L 175.809 99.836 L 175.809 99.836 Q 174.907 99.836 174.37 100.424 L 174.37 100.424 L 174.37 100.424 Q 173.834 101.012 173.738 102.051 L 173.738 102.051 L 177.655 102.051 L 177.655 102.051 Q 177.655 100.978 177.176 100.407 L 177.176 100.407 L 177.176 100.407 Q 176.698 99.836 175.809 99.836 Z  M 184.224 98.886 L 184.224 98.886 L 184.224 98.886 Q 184.723 98.886 185.12 98.968 L 185.12 98.968 L 184.962 100.021 L 184.962 100.021 Q 184.498 99.918 184.142 99.918 L 184.142 99.918 L 184.142 99.918 Q 183.233 99.918 182.587 100.657 L 182.587 100.657 L 182.587 100.657 Q 181.941 101.395 181.941 102.496 L 181.941 102.496 L 181.941 106.515 L 180.806 106.515 L 180.806 99.023 L 181.743 99.023 L 181.873 100.411 L 181.927 100.411 L 181.927 100.411 Q 182.344 99.679 182.932 99.283 L 182.932 99.283 L 182.932 99.283 Q 183.52 98.886 184.224 98.886 Z  M 189.686 106.652 L 189.686 106.652 L 189.686 106.652 Q 188.025 106.652 187.065 105.64 L 187.065 105.64 L 187.065 105.64 Q 186.104 104.628 186.104 102.831 L 186.104 102.831 L 186.104 102.831 Q 186.104 101.019 186.996 99.953 L 186.996 99.953 L 186.996 99.953 Q 187.888 98.886 189.392 98.886 L 189.392 98.886 L 189.392 98.886 Q 190.8 98.886 191.621 99.812 L 191.621 99.812 L 191.621 99.812 Q 192.441 100.739 192.441 102.256 L 192.441 102.256 L 192.441 102.974 L 187.28 102.974 L 187.28 102.974 Q 187.314 104.293 187.946 104.977 L 187.946 104.977 L 187.946 104.977 Q 188.579 105.661 189.727 105.661 L 189.727 105.661 L 189.727 105.661 Q 190.937 105.661 192.12 105.155 L 192.12 105.155 L 192.12 106.166 L 192.12 106.166 Q 191.518 106.426 190.982 106.539 L 190.982 106.539 L 190.982 106.539 Q 190.445 106.652 189.686 106.652 Z  M 189.378 99.836 L 189.378 99.836 L 189.378 99.836 Q 188.476 99.836 187.94 100.424 L 187.94 100.424 L 187.94 100.424 Q 187.403 101.012 187.307 102.051 L 187.307 102.051 L 191.224 102.051 L 191.224 102.051 Q 191.224 100.978 190.746 100.407 L 190.746 100.407 L 190.746 100.407 Q 190.267 99.836 189.378 99.836 Z " fill="rgb(0,0,0)"/><g><path d=" M 109.529 45.48 L 109.529 88.312 L 103.845 88.312 L 80.437 52.365 L 80.203 52.365 L 80.203 52.365 Q 80.672 58.693 80.672 63.966 L 80.672 63.966 L 80.672 88.312 L 76.072 88.312 L 76.072 45.48 L 81.697 45.48 L 105.047 81.281 L 105.281 81.281 L 105.281 81.281 Q 105.222 80.49 105.017 76.198 L 105.017 76.198 L 105.017 76.198 Q 104.812 71.906 104.871 70.06 L 104.871 70.06 L 104.871 45.48 L 109.529 45.48 L 109.529 45.48 Z  M 135.75 56.203 L 146.853 56.203 L 146.853 59.279 L 140.906 59.982 L 140.906 59.982 Q 141.726 61.007 142.371 62.663 L 142.371 62.663 L 142.371 62.663 Q 143.015 64.318 143.015 66.398 L 143.015 66.398 L 143.015 66.398 Q 143.015 71.115 139.793 73.927 L 139.793 73.927 L 139.793 73.927 Q 136.57 76.74 130.945 76.74 L 130.945 76.74 L 130.945 76.74 Q 129.51 76.74 128.25 76.505 L 128.25 76.505 L 128.25 76.505 Q 125.144 78.146 125.144 80.636 L 125.144 80.636 L 125.144 80.636 Q 125.144 81.954 126.228 82.584 L 126.228 82.584 L 126.228 82.584 Q 127.312 83.214 129.949 83.214 L 129.949 83.214 L 135.633 83.214 L 135.633 83.214 Q 140.847 83.214 143.645 85.412 L 143.645 85.412 L 143.645 85.412 Q 146.443 87.609 146.443 91.798 L 146.443 91.798 L 146.443 91.798 Q 146.443 97.13 142.166 99.928 L 142.166 99.928 L 142.166 99.928 Q 137.888 102.726 129.685 102.726 L 129.685 102.726 L 129.685 102.726 Q 123.386 102.726 119.973 100.382 L 119.973 100.382 L 119.973 100.382 Q 116.56 98.038 116.56 93.761 L 116.56 93.761 L 116.56 93.761 Q 116.56 90.831 118.435 88.693 L 118.435 88.693 L 118.435 88.693 Q 120.31 86.554 123.709 85.792 L 123.709 85.792 L 123.709 85.792 Q 122.478 85.236 121.643 84.064 L 121.643 84.064 L 121.643 84.064 Q 120.808 82.892 120.808 81.339 L 120.808 81.339 L 120.808 81.339 Q 120.808 79.581 121.746 78.263 L 121.746 78.263 L 121.746 78.263 Q 122.683 76.945 124.705 75.714 L 124.705 75.714 L 124.705 75.714 Q 122.215 74.689 120.647 72.228 L 120.647 72.228 L 120.647 72.228 Q 119.08 69.767 119.08 66.603 L 119.08 66.603 L 119.08 66.603 Q 119.08 61.329 122.244 58.473 L 122.244 58.473 L 122.244 58.473 Q 125.408 55.617 131.209 55.617 L 131.209 55.617 L 131.209 55.617 Q 133.728 55.617 135.75 56.203 L 135.75 56.203 L 135.75 56.203 Z  M 121.248 93.703 L 121.248 93.703 L 121.248 93.703 Q 121.248 96.31 123.445 97.658 L 123.445 97.658 L 123.445 97.658 Q 125.642 99.005 129.744 99.005 L 129.744 99.005 L 129.744 99.005 Q 135.867 99.005 138.811 97.174 L 138.811 97.174 L 138.811 97.174 Q 141.756 95.343 141.756 92.208 L 141.756 92.208 L 141.756 92.208 Q 141.756 89.601 140.144 88.59 L 140.144 88.59 L 140.144 88.59 Q 138.533 87.579 134.08 87.579 L 134.08 87.579 L 128.25 87.579 L 128.25 87.579 Q 124.939 87.579 123.094 89.162 L 123.094 89.162 L 123.094 89.162 Q 121.248 90.744 121.248 93.703 Z  M 123.885 66.486 L 123.885 66.486 L 123.885 66.486 Q 123.885 69.855 125.789 71.583 L 125.789 71.583 L 125.789 71.583 Q 127.693 73.312 131.092 73.312 L 131.092 73.312 L 131.092 73.312 Q 138.211 73.312 138.211 66.398 L 138.211 66.398 L 138.211 66.398 Q 138.211 59.162 131.004 59.162 L 131.004 59.162 L 131.004 59.162 Q 127.576 59.162 125.73 61.007 L 125.73 61.007 L 125.73 61.007 Q 123.885 62.853 123.885 66.486 Z  M 168.386 55.675 L 168.386 55.675 L 168.386 55.675 Q 174.715 55.675 178.216 59.996 L 178.216 59.996 L 178.216 59.996 Q 181.717 64.318 181.717 72.228 L 181.717 72.228 L 181.717 72.228 Q 181.717 80.138 178.186 84.518 L 178.186 84.518 L 178.186 84.518 Q 174.656 88.898 168.386 88.898 L 168.386 88.898 L 168.386 88.898 Q 165.252 88.898 162.659 87.741 L 162.659 87.741 L 162.659 87.741 Q 160.066 86.583 158.308 84.181 L 158.308 84.181 L 157.957 84.181 L 156.931 88.312 L 153.445 88.312 L 153.445 42.726 L 158.308 42.726 L 158.308 53.8 L 158.308 53.8 Q 158.308 57.521 158.074 60.48 L 158.074 60.48 L 158.308 60.48 L 158.308 60.48 Q 161.707 55.675 168.386 55.675 Z  M 167.683 59.747 L 167.683 59.747 L 167.683 59.747 Q 162.703 59.747 160.506 62.604 L 160.506 62.604 L 160.506 62.604 Q 158.308 65.46 158.308 72.228 L 158.308 72.228 L 158.308 72.228 Q 158.308 78.996 160.564 81.911 L 160.564 81.911 L 160.564 81.911 Q 162.82 84.826 167.801 84.826 L 167.801 84.826 L 167.801 84.826 Q 172.283 84.826 174.48 81.559 L 174.48 81.559 L 174.48 81.559 Q 176.678 78.292 176.678 72.169 L 176.678 72.169 L 176.678 72.169 Q 176.678 65.9 174.48 62.824 L 174.48 62.824 L 174.48 62.824 Q 172.283 59.747 167.683 59.747 Z  M 213.562 88.312 L 209.959 88.312 L 208.992 83.742 L 208.758 83.742 L 208.758 83.742 Q 206.355 86.759 203.968 87.829 L 203.968 87.829 L 203.968 87.829 Q 201.58 88.898 198.006 88.898 L 198.006 88.898 L 198.006 88.898 Q 193.23 88.898 190.52 86.437 L 190.52 86.437 L 190.52 86.437 Q 187.81 83.976 187.81 79.435 L 187.81 79.435 L 187.81 79.435 Q 187.81 69.708 203.367 69.24 L 203.367 69.24 L 208.816 69.064 L 208.816 67.072 L 208.816 67.072 Q 208.816 63.292 207.19 61.491 L 207.19 61.491 L 207.19 61.491 Q 205.564 59.689 201.99 59.689 L 201.99 59.689 L 201.99 59.689 Q 197.976 59.689 192.908 62.15 L 192.908 62.15 L 191.414 58.429 L 191.414 58.429 Q 193.787 57.14 196.614 56.408 L 196.614 56.408 L 196.614 56.408 Q 199.441 55.675 202.283 55.675 L 202.283 55.675 L 202.283 55.675 Q 208.025 55.675 210.794 58.224 L 210.794 58.224 L 210.794 58.224 Q 213.562 60.773 213.562 66.398 L 213.562 66.398 L 213.562 88.312 L 213.562 88.312 Z  M 198.972 84.884 L 198.972 84.884 L 198.972 84.884 Q 203.513 84.884 206.106 82.394 L 206.106 82.394 L 206.106 82.394 Q 208.699 79.904 208.699 75.421 L 208.699 75.421 L 208.699 72.521 L 203.836 72.726 L 203.836 72.726 Q 198.035 72.931 195.471 74.528 L 195.471 74.528 L 195.471 74.528 Q 192.908 76.124 192.908 79.494 L 192.908 79.494 L 192.908 79.494 Q 192.908 82.13 194.505 83.507 L 194.505 83.507 L 194.505 83.507 Q 196.101 84.884 198.972 84.884 Z  M 228.152 71.876 L 228.386 71.876 L 228.386 71.876 Q 229.646 70.089 232.224 67.189 L 232.224 67.189 L 242.595 56.203 L 248.367 56.203 L 235.359 69.884 L 249.275 88.312 L 243.386 88.312 L 232.049 73.136 L 228.386 76.3 L 228.386 88.312 L 223.582 88.312 L 223.582 42.726 L 228.386 42.726 L 228.386 66.896 L 228.386 66.896 Q 228.386 68.507 228.152 71.876 L 228.152 71.876 L 228.152 71.876 Z  M 282.791 72.228 L 282.791 72.228 L 282.791 72.228 Q 282.791 80.079 278.836 84.489 L 278.836 84.489 L 278.836 84.489 Q 274.881 88.898 267.908 88.898 L 267.908 88.898 L 267.908 88.898 Q 263.601 88.898 260.261 86.876 L 260.261 86.876 L 260.261 86.876 Q 256.922 84.855 255.105 81.076 L 255.105 81.076 L 255.105 81.076 Q 253.289 77.296 253.289 72.228 L 253.289 72.228 L 253.289 72.228 Q 253.289 64.376 257.215 59.996 L 257.215 59.996 L 257.215 59.996 Q 261.14 55.617 268.113 55.617 L 268.113 55.617 L 268.113 55.617 Q 274.851 55.617 278.821 60.099 L 278.821 60.099 L 278.821 60.099 Q 282.791 64.581 282.791 72.228 Z  M 258.328 72.228 L 258.328 72.228 L 258.328 72.228 Q 258.328 78.38 260.789 81.603 L 260.789 81.603 L 260.789 81.603 Q 263.25 84.826 268.025 84.826 L 268.025 84.826 L 268.025 84.826 Q 272.801 84.826 275.276 81.618 L 275.276 81.618 L 275.276 81.618 Q 277.752 78.41 277.752 72.228 L 277.752 72.228 L 277.752 72.228 Q 277.752 66.105 275.276 62.926 L 275.276 62.926 L 275.276 62.926 Q 272.801 59.747 267.967 59.747 L 267.967 59.747 L 267.967 59.747 Q 263.191 59.747 260.76 62.882 L 260.76 62.882 L 260.76 62.882 Q 258.328 66.017 258.328 72.228 Z " fill="rgb(0,0,0)"/></g><path d=" M -31.402 39.366 C -36.137 39.366 -40 43.229 -40 47.964 L -40 73.768 C -40 78.503 -36.137 82.366 -31.402 82.366 L -8.598 82.366 C -3.863 82.366 0 78.503 0 73.768 L 0 47.964 C 0 43.229 -3.863 39.366 -8.598 39.366 L -31.402 39.366 Z  M -31.402 41.366 L -8.598 41.366 C -6.847 41.362 -5.166 42.056 -3.928 43.294 C -2.69 44.532 -1.996 46.213 -2 47.964 L -2 66.768 C -1.996 68.519 -2.69 70.2 -3.928 71.438 C -5.166 72.677 -6.847 73.37 -8.598 73.366 L -31.402 73.366 C -33.153 73.37 -34.834 72.677 -36.072 71.438 C -37.31 70.2 -38.004 68.519 -38 66.768 L -38 47.964 C -38.004 46.213 -37.31 44.532 -36.072 43.294 C -34.834 42.056 -33.153 41.362 -31.402 41.366 L -31.402 41.366 Z  M -20.008 49.311 C -21.539 49.311 -22.754 49.854 -23.652 50.941 C -24.551 52.026 -25 53.572 -25 55.58 L -25 59.103 C -25 61.119 -24.547 62.67 -23.645 63.748 C -22.746 64.826 -21.523 65.365 -19.985 65.365 C -18.449 65.365 -17.235 64.825 -16.344 63.752 C -15.449 62.677 -15 61.127 -15 59.103 L -15 55.58 C -15 53.572 -15.45 52.025 -16.355 50.94 C -17.258 49.853 -18.477 49.31 -20.008 49.31 L -20.008 49.311 Z  M -20.004 50.983 C -19.199 50.983 -18.578 51.343 -18.144 52.065 C -17.714 52.788 -17.496 53.855 -17.496 55.272 L -17.496 59.405 C -17.496 60.827 -17.711 61.901 -18.141 62.628 C -18.571 63.354 -19.184 63.714 -19.984 63.714 C -20.789 63.714 -21.41 63.35 -21.844 62.62 C -22.274 61.893 -22.488 60.823 -22.488 59.409 L -22.488 55.272 C -22.488 53.862 -22.278 52.796 -21.855 52.069 C -21.43 51.346 -20.812 50.983 -20.004 50.983 Z  M -38 72.268 C -36.37 74.23 -33.952 75.365 -31.402 75.366 L -8.598 75.366 C -6.048 75.365 -3.63 74.23 -2 72.268 L -2 73.768 C -1.996 75.519 -2.69 77.2 -3.928 78.438 C -5.166 79.677 -6.847 80.37 -8.598 80.366 L -31.402 80.366 C -33.153 80.37 -34.834 79.677 -36.072 78.438 C -37.31 77.2 -38.004 75.519 -38 73.768 L -38 72.268 Z " fill="rgb(0,0,0)"/><path d=" M 42.742 57.551 C 33.16 57.551 25.195 64.511 25.195 73.266 C 25.195 77.469 27.074 81.286 30.055 84.102 L 29.961 84.562 C 29.289 86.532 27.636 87.645 26.656 88 C 26.086 88.203 25.613 88.512 25.351 89.051 C 25.093 89.586 25.25 90.328 25.641 90.715 C 26.554 91.633 27.741 91.543 28.609 91.551 C 31.871 91.591 35.715 89.879 38.043 88.715 L 38.07 88.703 L 38.867 88.243 L 38.562 88.149 L 38.597 88.156 C 39.894 88.457 41.254 88.551 42.59 88.551 C 51.015 88.551 58.265 83.516 59.867 76.27 L 59.867 76.266 C 60.086 75.281 60.196 74.275 60.195 73.266 C 60.195 64.52 52.324 57.551 42.742 57.551 Z  M 42.742 59.551 C 51.359 59.551 58.195 65.723 58.195 73.266 C 58.195 74.153 58.097 75.012 57.914 75.836 C 56.547 82.024 50.222 86.551 42.59 86.551 C 41.355 86.551 40.14 86.457 39.054 86.207 L 38.617 86.078 L 37.137 86.93 C 34.925 88.035 31.112 89.581 28.631 89.551 C 28.291 89.551 28.261 89.485 28.022 89.457 C 29.444 88.762 31.085 87.5 31.866 85.18 L 31.881 85.13 L 32.241 83.442 L 31.799 83.051 C 28.937 80.547 27.195 77.074 27.195 73.266 C 27.195 65.731 34.125 59.551 42.742 59.551 Z  M 34.195 66.551 L 34.195 68.551 L 51.195 68.551 L 51.195 66.551 L 34.195 66.551 Z  M 34.195 71.551 L 34.195 73.551 L 51.195 73.551 L 51.195 71.551 L 34.195 71.551 Z  M 61.98 75.746 C 61.93 76.066 61.894 76.386 61.824 76.703 C 61.746 77.047 61.644 77.383 61.543 77.723 C 66.148 79.5 69.179 83.083 69.179 87.063 C 69.179 89.918 67.695 92.586 64.992 94.583 L 64.449 94.985 L 64.617 95.641 C 65.156 97.707 67.047 98.774 68.355 99.485 C 66.281 99.765 61.773 99.297 59.508 96.617 L 59.128 96.164 L 58.55 96.281 C 57.64 96.461 56.586 96.551 55.32 96.551 C 49.101 96.551 44.05 94.141 42.086 90.535 C 41.323 90.522 40.561 90.47 39.804 90.379 C 41.66 95.293 47.625 98.551 55.32 98.551 C 56.472 98.551 57.476 98.481 58.379 98.344 C 60.586 100.578 64.183 101.547 67.097 101.547 C 67.289 101.547 67.48 101.543 67.664 101.535 C 69.355 101.457 70.457 101.067 70.945 100.375 C 71.16 100.063 71.235 99.695 71.148 99.336 C 70.98 98.621 70.324 98.27 69.414 97.781 C 68.519 97.297 67.344 96.661 66.793 95.711 C 69.593 93.399 71.179 90.289 71.179 87.063 C 71.179 82.156 67.511 77.778 61.98 75.746 Z  M 34.195 76.551 L 34.195 78.551 L 46.195 78.551 L 46.195 76.551 L 34.195 76.551 Z  M 59.211 82.551 C 58.711 83.254 58.16 83.926 57.554 84.551 L 62.195 84.551 L 62.195 82.551 L 59.211 82.551 Z  M 53.785 87.551 C 52.372 88.396 50.862 89.068 49.289 89.551 L 62.195 89.551 L 62.195 87.551 L 53.785 87.551 Z " fill="rgb(0,0,0)"/></svg>